<?xml version="1.0" encoding="UTF-8"?>
<svg width="10px" height="34px" viewBox="0 0 10 34" version="1.1" xmlns="http://www.w3.org/2000/svg" xmlns:xlink="http://www.w3.org/1999/xlink">
    <!-- Generator: Sketch 51.3 (57544) - http://www.bohemiancoding.com/sketch -->
    <title>ic_arrow-slider</title>
    <desc>Created with Sketch.</desc>
    <defs></defs>
    <g id="ic_arrow-slider" stroke="none" stroke-width="1" fill="none" fill-rule="evenodd">
        <path d="M10,1.20601365 C9.99515433,1.61945315 9.86308244,1.92118109 9.60626183,2.17199845 C8.26135104,3.48532082 6.91665885,4.79882107 5.57189379,6.11225017 C4.78470891,6.88103205 3.99832557,7.65052547 3.20884538,8.41699485 C3.14326486,8.4806064 3.14166178,8.5157564 3.20709657,8.57951026 C5.20201964,10.5241808 7.1951939,12.4705591 9.18847746,14.4168306 C9.34506918,14.5697403 9.50555929,14.7192701 9.65603016,14.8778365 C10.3024355,15.5591347 9.99417062,16.6683878 9.08307499,16.9378474 C8.58437154,17.0853494 8.14589288,16.9672696 7.77791328,16.615983 C7.31997906,16.1788136 6.87126255,15.7324655 6.41839261,15.2902442 C4.43090199,13.3495939 2.44359354,11.4087656 0.455410689,9.4687912 C0.26570081,9.28368444 0.109582731,9.08093151 0.0453502525,8.82057954 C-0.066865309,8.36526599 0.0254210602,7.95399668 0.364144461,7.62234854 C2.83445346,5.2039 5.30873372,2.78922261 7.7843256,0.37593272 C8.49008133,-0.312089528 9.67151445,-0.0123183164 9.9502681,0.922074171 C9.9829855,1.03175785 9.99034509,1.14866364 10,1.20601365" id="Fill-1" fill="#BFD6DF" transform="translate(5.000000, 8.500000) scale(-1, 1) translate(-5.000000, -8.500000) "></path>
        <path d="M10,18.2060136 C9.99515433,18.6194532 9.86308244,18.9211811 9.60626183,19.1719985 C8.26135104,20.4853208 6.91665885,21.7988211 5.57189379,23.1122502 C4.78470891,23.881032 3.99832557,24.6505255 3.20884538,25.4169948 C3.14326486,25.4806064 3.14166178,25.5157564 3.20709657,25.5795103 C5.20201964,27.5241808 7.1951939,29.4705591 9.18847746,31.4168306 C9.34506918,31.5697403 9.50555929,31.7192701 9.65603016,31.8778365 C10.3024355,32.5591347 9.99417062,33.6683878 9.08307499,33.9378474 C8.58437154,34.0853494 8.14589288,33.9672696 7.77791328,33.615983 C7.31997906,33.1788136 6.87126255,32.7324655 6.41839261,32.2902442 C4.43090199,30.3495939 2.44359354,28.4087656 0.455410689,26.4687912 C0.26570081,26.2836844 0.109582731,26.0809315 0.0453502525,25.8205795 C-0.066865309,25.365266 0.0254210602,24.9539967 0.364144461,24.6223485 C2.83445346,22.2039 5.30873372,19.7892226 7.7843256,17.3759327 C8.49008133,16.6879105 9.67151445,16.9876817 9.9502681,17.9220742 C9.9829855,18.0317578 9.99034509,18.1486636 10,18.2060136" id="Fill-1-Copy" fill="#00ADEF" transform="translate(5.000000, 25.500000) scale(-1, 1) translate(-5.000000, -25.500000) "></path>
    </g>
</svg>